<?xml version="1.0" encoding="UTF-8"?>
<svg version="1.1" viewBox="0 0 1104 1104" width="1280" height="1280" xmlns="http://www.w3.org/2000/svg">
<path transform="translate(272)" d="m0 0h561l33 6 28 7 20 7 20 9 16 8 18 11 17 12 17 14 13 12 9 9 7 8 13 16 16 24 10 17 10 21 9 24 7 25 5 24 3 19v556l-6 36-7 28-7 20-11 25-12 22-10 15-12 16-12 14-26 26-10 8-19 14-18 11-23 12-16 7-17 6-24 7-36 7-7 1h-557l-39-7-24-6-20-7-23-10-17-9-21-13-13-10-11-9-10-9-22-22-9-11-10-13-10-15-10-17-12-25-8-21-8-29-6-32-1-8v-562l8-41 7-24 8-21 9-20 12-21 13-19 11-14 11-13 20-20 11-9 17-13 20-13 20-11 20-9 20-7 21-6 29-6z"/>
<path transform="translate(306,227)" d="m0 0 16 1 28 6 69 17 66 18 41 12 33 10 31 10 35 12 41 15 30 12 26 11 20 9 35 17 22 12 20 12 19 13 18 14 10 9 8 7 12 13 11 15 10 17 8 21 3 13 1 8v14l-2 15-4 15-7 17-7 12-9 13-8 10-11 12-9 9-11 9-12 10-18 13-15 10-16 10-20 12-18 10-28 15-22 11-28 13-40 18-36 15-35 14-39 15-41 15-40 14-50 17-44 14-15 4-15 1-12-2-12-5-11-7-9-10-7-12-4-12-1-7v-9l3-15 8-16 11-12 11-7 19-7 53-17 53-18 47-17 29-11 26-10 37-15 26-11 43-19 16-8 25-12 23-12 41-24 25-17 10-8 13-11 10-10 4-6-1-4-7-9-11-9-15-11-18-11-17-10-19-9-16-8-24-11-32-13-29-11-33-12-43-14-45-14-56-16-65-17-50-12-24-6-12-6-10-9-8-9-6-12-3-12v-17l4-15 6-11 11-12 11-7 12-5z" fill="#FEFEFE"/>
</svg>
