<svg xmlns="http://www.w3.org/2000/svg" viewBox="14.399999999999999 291.2 200 214.4" version="1.1" style="max-height: 500px" width="200" height="214.4">
<path fill="#FDFDFD" d="m0 0h800v800h-800z" transform="translate(0)"/>
<path fill="#2B2335" d="m0 0h75l-1 5-4 6 1 5 6 9 13 22 11 18v2l-9 1h-9l-18 30-3 6-3-1-6-9 1-5 7-14 5-8h-15l-2 5-5 5-2-3-1-6 5-2h4l-2-6-2-1 1-5 4-8h4l6 9 6 11h16l-9-14-10-17-3-6 2-7 4-8h-57l1 5 5 9 43 1-2 6-5 8h-29l-7-12-3 4-13 24-5 8 12-1 3 1 8 13 6 12-5 9-3 6h45l4 5 3 9h-59l1-5 4-9-1-5-14-25-5-8v-2l-9 1-7-1 8-16 13-23 6-10 1-5-6-11z" transform="translate(74,334)"/>
<path fill="#6000DC" d="m0 0h2l10 16 10 17 11 18v2l-9 1h-9l-18 30-3 6-3-1-6-9 1-5 7-14 5-8h-15l-2 5-5 5-2-3-1-6 5-2h4l-2-6-2-1 1-5 4-8h4l6 9 6 11h16l-9-14-10-17-3-6 2-7z" transform="translate(142,348)"/>
<path fill="#2C2239" d="m0 0 10 1 8 7 3 6v12l-4 6-6 5-5 2h-8l-8-5-4-6-2-9 3-10 5-5z" transform="translate(374,364)"/>
<path fill="#6000DC" d="m0 0h75l-1 5-4 6-2 4-58-1-2 2v-3h-2l-6-11z" transform="translate(74,334)"/>
<path fill="#6000DC" d="m0 0 14 1 4 5 14 24 10 18 2 4-1 6-5 8-5-5-10-18-14-24-9-16z" transform="translate(36,401)"/>
<path fill="#6000DC" d="m0 0h2l-1 5-10 17-14 24-11 18-4 1-4-8-1-5 14-24 13-23 3-4z" transform="translate(187,401)"/>
<path fill="#2B2333" d="m0 0h2l10 16 10 17 11 18v2l-9 1-9-2-9-14-10-17-3-6 2-7z" transform="translate(142,348)"/>
<path fill="#2D213B" d="m0 0h45l4 5 3 9h-59l1-5 3-7z" transform="translate(90,441)"/>
<path fill="#FEFEFE" d="m0 0h8l6 4 2 4v11l-3 5-7 4-8-1-4-5-2-4v-10l6-7z" transform="translate(373,370)"/>
<path fill="#2D213C" d="m0 0h26l-1 5-18 1-1 10h17l1 4-4 1h-14l1 11h18l2 3-1 2-7 1h-20v-37z" transform="translate(234,365)"/>
<path fill="#6000DC" d="m0 0 1 2 12-1 3 1 8 13 6 12-5 9-4 8-1-2-1-5-14-25-6-11z" transform="translate(68,399)"/>
<path fill="#2D223A" d="m0 0h5l1 1 1 22 2 9 9 1 6-3 2-6 1-24h5l1 1v22l-2 8-5 5-7 3-10-1-6-4-3-9z" transform="translate(490,364)"/>
<path fill="#6000DC" d="m0 0 2 1 43 1-2 6-5 8h-29l-7-12z" transform="translate(88,361)"/>
<path fill="#2C2239" d="m0 0h12l6 4v3l-6-1-7-1-7 2 1 6 9 3 10 4 2 3v8l-4 5-6 2h-9l-9-3-2-4 3-2 9 3h7l5-3-1-4-16-6-5-5v-6l4-6z" transform="translate(742,365)"/>
<path fill="#2D223A" d="m0 0 8 1 8 5 1 3-4 2-6-4h-9l-5 4-2 4v7l3 8 6 3 8-1 5-3h4l-1 5-7 4-4 1h-7l-6-3-5-5-3-7v-9l4-8 6-5z" transform="translate(682,364)"/>
<path fill="#2D223A" d="m0 0h5l5 11 5 15 2 5 8-23 4-8h5l-1 5-10 27-4 7-3 1-3-3-13-34z" transform="translate(293,364)"/>
<path fill="#2B2335" d="m0 0h32l1 2-2 3-11 1-1 32h-7v-33h-12l-1-4z" transform="translate(557,365)"/>
<path fill="#2F2042" d="m0 0h6v34l11-1 10 1v4l-8 1h-20v-19z" transform="translate(432,364)"/>
<path fill="#2D223A" d="m0 0 4 2 9 15 1 4-1 1h-14l-2 5-5 5-2-3-1-6 5-2h4l-2-6-2-1 1-5 4-8z" transform="translate(126,379)"/>
<path fill="#2E213F" d="m0 0 3 3 5 9-2 4-3 3v2l9 1 1 4-3 7-4-2-5-8-13-1 2-6 8-13z" transform="translate(97,378)"/>
<path fill="#341D50" d="m0 0h6v38h-7v-19z" transform="translate(624,365)"/>
<path fill="#321E4C" d="m0 0 4 4 4 7v3l-25-1 4-8 3-4z" transform="translate(116,412)"/>
<path fill="#311F46" d="m0 0h1l1 14h1v7h-2v2h2l2-2 1 4h18l2 3-1 2-7 1h-20v-20h1z" transform="translate(235,372)"/>
<path fill="#2F2042" d="m0 0h3l1 7 17 1 1 4-4 1h-14v7l-2 3-2-1v-2h2l-2-4z" transform="translate(236,373)"/>
<path fill="#6000DC" d="m0 0 11 1 1 4-3 7-4-2-5-8z" transform="translate(98,399)"/>
<path fill="#6000DC" d="m0 0 5 4h-4l-2 5-5 5-2-3-1-6 5-2h4z" transform="translate(124,397)"/>
<path fill="#5E01D6" d="m0 0h1l1 14h1v7h-2v3h-2l1 3-2 4v-20h1z" transform="translate(235,372)"/>
<path fill="#6000DC" d="m0 0h11v4l-5 4h-2z" transform="translate(106,390)"/>
<path fill="#351C53" d="m0 0h3l1 11h-4z" transform="translate(407,425)"/>
<path fill="#42137F" d="m0 0 4 1-2 8 2 1-4 1-1-7z" transform="translate(619,425)"/>
<path fill="#381A5C" d="m0 0h3v7l1 4h-4z" transform="translate(339,425)"/>
<path fill="#3C176B" d="m0 0 3 1v9l-3 1z" transform="translate(481,425)"/>
<path fill="#311F49" d="m0 0h3l2 11-3 1-1-1z" transform="translate(393,425)"/>
<path fill="#371B5B" d="m0 0h3l-1 11h-3z" transform="translate(379,425)"/>
<path fill="#341D52" d="m0 0 3 1-2 9h-3l1-9z" transform="translate(431,425)"/>
<path fill="#41147A" d="m0 0 2 1 2 8-4 1-1-9z" transform="translate(690,426)"/>
<path fill="#47108E" d="m0 0h2l1 9-5 1z" transform="translate(551,426)"/>
<path fill="#391962" d="m0 0 3 1v8l-1 1h-5l3-3z" transform="translate(448,426)"/>
<path fill="#42137D" d="m0 0h3l-1 11h-2l-1-10z" transform="translate(703,424)"/>
<path fill="#2F2041" d="m0 0h3l-1 11h-2z" transform="translate(510,425)"/>
</svg>