<svg xmlns="http://www.w3.org/2000/svg" version="1.1" xmlns:xlink="http://www.w3.org/1999/xlink" xmlns:svgjs="http://svgjs.dev/svgjs" width="2000" height="520" viewBox="0 0 2000 520"><g transform="matrix(1,0,0,1,-1.2121212121212466,-0.06697332106716658)"><svg viewBox="0 0 396 103" data-background-color="#ffffff" preserveAspectRatio="xMidYMid meet" height="520" width="2000" xmlns="http://www.w3.org/2000/svg" xmlns:xlink="http://www.w3.org/1999/xlink"><g id="tight-bounds" transform="matrix(1,0,0,1,0.2400000000000091,0.013265869365227445)"><svg viewBox="0 0 395.52 102.97346826126955" height="102.97346826126955" width="395.52"><g><svg viewBox="0 0 395.52 102.97346826126955" height="102.97346826126955" width="395.52"><g><svg viewBox="0 0 395.52 102.97346826126955" height="102.97346826126955" width="395.52"><g id="textblocktransform"><svg viewBox="0 0 395.52 102.97346826126955" height="102.97346826126955" width="395.52" id="textblock"><g><svg viewBox="0 0 395.52 102.97346826126955" height="102.97346826126955" width="395.52"><g transform="matrix(1,0,0,1,0,0)"><svg width="395.52" viewBox="2.25 -36.5 163.04 42.45" height="102.97346826126955" data-palette-color="#1e55b3"><path d="M30 5.95L30 5.95 4.55 5.95Q3.35 5.95 2.8 5.4 2.25 4.85 2.25 3.65L2.25 3.65 2.25-28.75Q2.25-29.4 2.43-29.85 2.6-30.3 2.95-30.6L2.95-30.6 9.4-36.05Q9.65-36.25 10.08-36.38 10.5-36.5 11-36.5L11-36.5 18.75-36.5Q19.95-36.5 20.5-35.95 21.05-35.4 21.05-34.2L21.05-34.2 21.05-13.85 21.15-13.95 27.6-19.4Q27.85-19.6 28.28-19.73 28.7-19.85 29.2-19.85L29.2-19.85 36.45-19.85Q37.65-19.85 38.2-19.3 38.75-18.75 38.75-17.55L38.75-17.55 38.75-1.8Q38.75-1.15 38.58-0.7 38.4-0.25 38.05 0.05L38.05 0.05 31.55 5.45Q31.35 5.65 30.93 5.8 30.5 5.95 30 5.95ZM11 0L36.45 0Q37.4 0 37.83-0.43 38.25-0.85 38.25-1.8L38.25-1.8 38.25-17.55Q38.25-18.5 37.83-18.93 37.4-19.35 36.45-19.35L36.45-19.35 29.2-19.35Q28.25-19.35 27.83-18.93 27.4-18.5 27.4-17.55L27.4-17.55 27.4-9.45 20.55-9.45 20.55-34.2Q20.55-35.15 20.13-35.58 19.7-36 18.75-36L18.75-36 11-36Q10.05-36 9.63-35.58 9.2-35.15 9.2-34.2L9.2-34.2 9.2-1.8Q9.2-0.85 9.63-0.43 10.05 0 11 0L11 0ZM33.05-4.5L14.65-4.5 14.65-31.5 15.15-31.5 15.15-5 32.55-5 32.55-14.85 33.05-14.85 33.05-4.5ZM66.55-19.25L66.55-19.25Q67.45-19.25 67.85-19.65 68.25-20.05 69.1-21.35L69.1-21.35 75.2-30.65Q75.5-31.15 75.87-31.33 76.25-31.5 76.65-31.5L76.65-31.5 77.5-31.5Q78.2-31.5 78.52-31.13 78.85-30.75 78.85-29.95L78.85-29.95 78.85-4.5 78.35-4.5 78.35-29.95Q78.35-30.35 78.17-30.68 78-31 77.5-31L77.5-31 76.75-31Q76.4-31 76.15-30.9 75.9-30.8 75.6-30.3L75.6-30.3 69.5-21.1Q68.6-19.75 68.12-19.25 67.65-18.75 66.55-18.75L66.55-18.75Q65.45-18.75 64.97-19.25 64.5-19.75 63.6-21.1L63.6-21.1 57.5-30.3Q57.2-30.8 56.92-30.9 56.65-31 56.3-31L56.3-31 55.55-31Q55.05-31 54.9-30.68 54.75-30.35 54.75-29.95L54.75-29.95 54.75-4.5 54.25-4.5 54.25-29.95Q54.25-30.75 54.57-31.13 54.9-31.5 55.55-31.5L55.55-31.5 56.4-31.5Q56.8-31.5 57.2-31.33 57.6-31.15 57.9-30.65L57.9-30.65 64-21.35Q64.85-20.05 65.25-19.65 65.65-19.25 66.55-19.25ZM50.75 0L58.2 0Q59.15 0 59.57-0.43 60-0.85 60-1.8L60-1.8 60-19.4 62.95-13.95Q63.4-13.1 64.02-12.73 64.65-12.35 65.6-12.35L65.6-12.35 67.6-12.35Q68.55-12.35 69.17-12.73 69.8-13.1 70.25-13.95L70.25-13.95 73.2-19.4 73.2-1.8Q73.2-0.85 73.62-0.43 74.05 0 75 0L75 0 82.7 0Q83.65 0 84.07-0.43 84.5-0.85 84.5-1.8L84.5-1.8 84.5-34.2Q84.5-35.15 84.07-35.58 83.65-36 82.7-36L82.7-36 74.6-36Q73.8-36 73.27-35.65 72.75-35.3 72.3-34.5L72.3-34.5 67.85-26.35Q67.6-25.9 67.42-25.7 67.25-25.5 66.95-25.5L66.95-25.5 66.5-25.5Q66.2-25.5 66.02-25.7 65.85-25.9 65.6-26.35L65.6-26.35 61.1-34.5Q60.65-35.3 60.12-35.65 59.6-36 58.8-36L58.8-36 50.75-36Q49.8-36 49.37-35.58 48.95-35.15 48.95-34.2L48.95-34.2 48.95-1.8Q48.95-0.85 49.37-0.43 49.8 0 50.75 0L50.75 0ZM59.8 0.05L59.8 0.05 53.3 5.45Q53.1 5.65 52.67 5.8 52.25 5.95 51.75 5.95L51.75 5.95 44.3 5.95Q43.1 5.95 42.55 5.4 42 4.85 42 3.65L42 3.65 42-28.75Q42-29.4 42.17-29.85 42.35-30.3 42.7-30.6L42.7-30.6 49.15-36.05Q49.4-36.25 49.82-36.38 50.25-36.5 50.75-36.5L50.75-36.5 58.8-36.5Q59.75-36.5 60.37-36.1 61-35.7 61.55-34.75L61.55-34.75 64.95-28.5 65.4-29.3Q65.6-29.65 65.82-29.98 66.05-30.3 66.3-30.5L66.3-30.5 72.75-35.9Q73.15-36.2 73.57-36.35 74-36.5 74.6-36.5L74.6-36.5 82.7-36.5Q83.9-36.5 84.45-35.95 85-35.4 85-34.2L85-34.2 85-1.8Q85-1.15 84.82-0.7 84.65-0.25 84.3 0.05L84.3 0.05 77.8 5.45Q77.6 5.65 77.17 5.8 76.75 5.95 76.25 5.95L76.25 5.95 68.55 5.95Q67.3 5.95 66.77 5.4 66.25 4.85 66.25 3.65L66.25 3.65 66.25-9.55 63.3-7.1Q62.9-6.75 62.37-6.58 61.85-6.4 61.15-6.4L61.15-6.4 60.5-6.4 60.5-1.8Q60.5-1.15 60.32-0.7 60.15-0.25 59.8 0.05ZM99.5 5.95L99.5 5.95 91.75 5.95Q90.55 5.95 90 5.4 89.45 4.85 89.45 3.65L89.45 3.65 89.45-28.75Q89.45-29.4 89.62-29.85 89.8-30.3 90.15-30.6L90.15-30.6 96.6-36.05Q96.85-36.25 97.27-36.38 97.7-36.5 98.2-36.5L98.2-36.5 113.5-36.5Q117.05-36.5 119.45-35.75 121.84-35 123.25-33.65 124.65-32.3 125.22-30.4 125.8-28.5 125.8-26.25L125.8-26.25 125.8-19.85Q125.8-17.45 125.12-15.48 124.45-13.5 122.8-12.1L122.8-12.1 116.3-6.7Q115.05-5.65 113.07-4.98 111.1-4.3 108.25-4.2L108.25-4.2 108.25-1.8Q108.25-1.15 108.07-0.7 107.9-0.25 107.55 0.05L107.55 0.05 101.05 5.45Q100.85 5.65 100.42 5.8 100 5.95 99.5 5.95ZM98.2 0L105.95 0Q106.9 0 107.32-0.43 107.75-0.85 107.75-1.8L107.75-1.8 107.75-10.1 113.5-10.1Q120.3-10.1 122.8-12.8 125.3-15.5 125.3-19.85L125.3-19.85 125.3-26.25Q125.3-30.6 122.8-33.3 120.3-36 113.5-36L113.5-36 98.2-36Q97.25-36 96.82-35.58 96.4-35.15 96.4-34.2L96.4-34.2 96.4-1.8Q96.4-0.85 96.82-0.43 97.25 0 98.2 0L98.2 0ZM112.8-14.35L112.8-14.35 102.5-14.35 102.5-4.5 102-4.5 102-31.5 112.8-31.5Q115.15-31.5 116.62-30.98 118.1-30.45 118.9-29.55 119.7-28.65 120-27.4 120.3-26.15 120.3-24.7L120.3-24.7 120.3-21Q120.3-19.55 120-18.32 119.7-17.1 118.9-16.23 118.1-15.35 116.62-14.85 115.15-14.35 112.8-14.35ZM102.5-31L102.5-14.85 112.8-14.85Q115-14.85 116.37-15.3 117.75-15.75 118.5-16.57 119.25-17.4 119.52-18.53 119.8-19.65 119.8-21L119.8-21 119.8-24.7Q119.8-26.05 119.52-27.2 119.25-28.35 118.5-29.2 117.75-30.05 116.37-30.53 115-31 112.8-31L112.8-31 102.5-31ZM107.65-19.1L107.65-26.65 112.15-26.65Q113.6-26.65 114.05-25.9 114.5-25.15 114.5-24.2L114.5-24.2 114.5-21.55Q114.5-20.6 114.05-19.85 113.6-19.1 112.15-19.1L112.15-19.1 107.65-19.1ZM156.54 5.95L156.54 5.95 140.79 5.95Q134.24 5.95 131.12 2.55 127.99-0.85 127.99-6.25L127.99-6.25 127.99-20.35Q127.99-23.1 128.79-25.1 129.59-27.1 131.14-28.45L131.14-28.45 137.59-33.9Q139.14-35.2 141.57-35.85 143.99-36.5 147.24-36.5L147.24-36.5 159.74-36.5Q160.94-36.5 161.49-35.95 162.04-35.4 162.04-34.2L162.04-34.2 162.04-28.15Q162.04-27.5 161.87-27.05 161.69-26.6 161.34-26.3L161.34-26.3 154.84-20.9Q154.64-20.7 154.22-20.55 153.79-20.4 153.29-20.4L153.29-20.4 146.79-20.4 146.79-13.2Q146.84-13.3 146.97-13.43 147.09-13.55 147.19-13.65L147.19-13.65 153.64-19.1Q153.89-19.3 154.32-19.43 154.74-19.55 155.24-19.55L155.24-19.55 162.99-19.55Q164.19-19.55 164.74-19 165.29-18.45 165.29-17.25L165.29-17.25 165.29-1.8Q165.29-1.15 165.12-0.7 164.94-0.25 164.59 0.05L164.59 0.05 158.09 5.45Q157.89 5.65 157.47 5.8 157.04 5.95 156.54 5.95ZM147.24 0L162.99 0Q163.94 0 164.37-0.43 164.79-0.85 164.79-1.8L164.79-1.8 164.79-17.25Q164.79-18.2 164.37-18.63 163.94-19.05 162.99-19.05L162.99-19.05 155.24-19.05Q154.29-19.05 153.87-18.63 153.44-18.2 153.44-17.25L153.44-17.25 153.44-9.45 148.59-9.45Q147.44-9.45 146.87-10.05 146.29-10.65 146.29-11.9L146.29-11.9 146.29-23.85Q146.29-25.1 147.04-25.73 147.79-26.35 149.34-26.35L149.34-26.35 159.74-26.35Q160.69-26.35 161.12-26.78 161.54-27.2 161.54-28.15L161.54-28.15 161.54-34.2Q161.54-35.15 161.12-35.58 160.69-36 159.74-36L159.74-36 147.24-36Q140.99-36 137.97-33.5 134.94-31 134.94-25.8L134.94-25.8 134.94-10.2Q134.94-5 137.97-2.5 140.99 0 147.24 0L147.24 0ZM159.34-4.5L149.39-4.5Q146.64-4.5 144.89-4.85 143.14-5.2 142.14-5.98 141.14-6.75 140.77-7.98 140.39-9.2 140.39-10.95L140.39-10.95 140.39-24.95Q140.39-28.5 141.99-30 143.59-31.5 148.39-31.5L148.39-31.5 157.04-31.5 157.04-31 148.39-31Q143.99-31 142.44-29.63 140.89-28.25 140.89-24.95L140.89-24.95 140.89-10.95Q140.89-7.7 142.62-6.35 144.34-5 149.39-5L149.39-5 158.84-5 158.84-14.55 159.34-14.55 159.34-4.5Z" opacity="1" transform="matrix(1,0,0,1,0,0)" fill="#000000" class="wordmark-text-0" data-fill-palette-color="primary" id="text-0"></path></svg></g></svg></g></svg></g></svg></g></svg></g><defs></defs></svg><rect width="395.52" height="102.97346826126955" fill="none" stroke="none" visibility="hidden"></rect></g></svg></g></svg>