<?xml version="1.0" encoding="UTF-8"?>
<svg version="1.1" viewBox="0 0 1120 1120" width="1280" height="1280" xmlns="http://www.w3.org/2000/svg">
<path transform="translate(0)" d="m0 0h1120v1120h-1120z"/>
<path transform="translate(763,249)" d="m0 0h9l11 4 7 7 4 8 1 8-2 8-7 11-17 17h-2v2h-2v2l-4 4h-2v2h-2v2h-2v2l-7 6-1 2h-2v2l-4 4h-2v2h-2v2h-2v2h-2l-2 4-18 18-8 7-14 15-6 6h-2v2h-2v2h-2v2h-2v2h-2v2h-2l-2 4-9 9-8 7-14 15-11 11h-2v2h-2v2l-4 4h-2v2h-2v2h-2v2l-7 6-1 2h-2v2l-4 4h-2v2h-2v2h-2v2h-2l-2 4-18 18-8 7-14 15-6 6h-2v2h-2v2h-2v2h-2v2h-2v2h-2l-2 4-9 9-8 7-14 15-11 11h-2v2h-2v2l-4 4h-2v2h-2v2h-2v2l-7 6-1 2h-2v2l-4 4h-2v2h-2v2h-2v2h-2l-2 4-18 18-8 7-14 15-6 6h-2v2h-2v2h-2v2h-2v2h-2v2h-2l-2 4-9 9-8 7-5 6h-2l-2 4-16 16h-2v2h-2v2l-7 6-1 2h-2v2l-7 6-1 2h-2v2l-4 4h-2l-2 4-22 22-11 7-3 1h-12l-9-4-7-7-4-11v-9l4-10 5-6 8-7 15-15 1-2h2l2-4 16-16 8-7 19-19 5-6 15-15 8-7 19-19 2-3h2l2-4 8-8h2l2-4 13-12 16-16 7-8 12-12 8-7 19-19 5-6 15-15 8-7 19-19 2-3h2l2-4 8-8h2l2-4 13-12 16-16 7-8 12-12 8-7 19-19 5-6 15-15 8-7 19-19 2-3h2l2-4 8-8h2l2-4 13-12 16-16 7-8 12-12 8-7 22-22 7-4z" fill="#fff"/>
<path transform="translate(814,534)" d="m0 0h11l8 3 6 5 5 10 1 3v10l-4 10-4 6-16 16h-2l-1 3-8 7-21 21-7 8-12 12-8 7-14 14-7 8-23 23-8 7-3 3h-2v2h-2l-2 4-7 8-13 13h-2l-1 3-8 7-21 21-7 8-13 13-8 7-13 13-7 8-22 22-11 5-11 1-10-3-8-6-4-8-1-3v-11l5-10 7-8 6-5h2l2-4 15-16 16-16 8-7 5-5h2l2-4 7-8 6-5 7-8 7-7 6-5 11-11h2l2-4 7-8 8-8h2l2-4 8-8 8-7 5-5h2l2-4 6-7h2l2-4 17-17h2l2-4 8-7 5-5h2l2-4 6-7 7-6 7-8 7-7h2l2-4 8-7 5-5h2l2-4 8-9 11-7z" fill="#fff"/>
</svg>
