<?xml version="1.0" encoding="UTF-8"?>
<svg version="1.1" viewBox="0 0 900 900" width="1280" height="1280" xmlns="http://www.w3.org/2000/svg">
<path transform="translate(0)" d="m0 0h900v900h-900z" fill="#FCFDFC"/>
<path transform="translate(0)" d="m0 0h900v900h-900zm424 35-32 3-27 5-30 8-26 9-30 14-24 14-16 10-16 12-11 9-10 9-8 7-9 9-7 8-12 14-11 13-11 16-7 11-6 10-10 18-11 24-14 40-6 21-5 28-3 30v44l4 36 5 26 7 26 9 25 10 23 12 22 12 19 16 24 11 14 15 16 10 11 8 7 1 2-17-5-20-9-12-9-11-9-28-28h-3l-7 8-10 10-9 11-30 30v7l6 9 11 13 12 12 13 10 19 10 15 6 22 7 9 3-3 9 10 9 30 20 22 13 29 15 29 12 26 9 31 9 25 6 32 5 28 3 22 1 31-1 34-3 26-4 27-6 29-8 20-7 28-12 26-12 23-12 23-15 17-12 13-10 10-8 11-9 2-3-6-7-1-4 9-2 21-9 15-9 10-8 12-11 10-12 12-19 3-4-1-5-8-8-8-7-15-14-8-7-13-12-7-6-13 16-8 11-16 17-7 6-14 9-20 11-11 4-16 4 1-1 14-12 12-12 7-8 9-12 8-11 14-20 12-19 12-25 14-36 9-30 5-27 3-23 1-14v-46l-3-30-7-34-7-24-10-27-9-21-10-20-9-15-10-15-10-13-22-26-14-15-8-7-10-9-14-11-24-16-14-9-27-14-23-10-19-7-32-9-31-6-20-2z" fill="#FCFDFC"/>
<path transform="translate(516,142)" d="m0 0 11 3 27 11 20 10 19 12 18 14 13 12 17 17 9 11 10 13 13 21 13 27 10 26 6 24 4 20 2 18v36l-2 2h-209l-18-1h-25l-18 1h-256l-1-1v-34l3-28 6-28 10-30 9-20 12-22 11-16 12-15 9-11 8-8 8-7 14-12 14-10 19-12 16-8 16-7 20-7h3v125l17 1v-9l-15-2v-2h17l4-9-2-5-15-11-3-3 8 2 17 8h4l2-4 5-4-1-5-10-20-6-11 4 2 12 14 7 10 2 3 16-4 8-1-2-25-1-3v-8l4-14 2-8h1l1 31v26l6 2 15 4 2-4 15-23 4-2-1 6-7 12-8 13 2 4 7 6 9-1 19-8 4-1-1 4-15 9-6 5 1 7 4 6 20-1-1 3-14 5h-3l-1 5 21 1z" fill="#74C3F0"/>
<path transform="translate(181,435)" d="m0 0h524l-1 13-5 21-8 24-3 2-19-3-10-3h-11l-8 5-2 3 11 2 11 1h28l-5 13-12 22-12 19-10 13-22 24-9 9-10 8-12 9-10 7-20 12-26 12-30 10-23 5-26 3h-36l-29-4-22-5-19-6-16-6-26-13-21-13-12-9-14-12-12-11-7-8-8-9-14-19-7-11-9-16-10-21-10-28-6-25-2-9z" fill="#74C3F0"/>
<path transform="translate(710,667)" d="m0 0 4 4 7 12 11 15 14 20 10 15 1 4 2 1-11 9-17 14-14 10-15 10-16 10-26 14-28 13-34 13-26 8-34 8-32 5-31 3h-51l-32-3-26-4-32-7-28-8-25-9-23-10-25-12-22-12-19-12-16-11-12-9-2-4 9-15 14-22 11-18 9-14h3l32 21 22 13 27 14 23 10 27 10 30 8 24 5 30 4 18 1h23l25-2 27-4 22-5 26-8 21-8 20-9 20-10 21-12 14-9 16-11 11-8 13-10z" fill="#FCFDFC"/>
<path transform="translate(418,123)" d="m0 0h51l28 4 25 6 21 7 16 7 20 11 17 11 18 13 13 11 20 20 7 8 12 15 11 17 12 22 8 17 8 22 7 28 4 25 1 10v42l-4 29-4 19-7 25-8 21-13 25-14 22-10 13-9 11-22 22-11 9-15 12-17 11-29 15-20 8-24 7-19 4-27 3h-45l-30-4-25-6-20-7-19-8-18-10-22-14-11-9-13-11-8-7-9-9-7-8-11-14-8-10-10-16-9-16-11-24-10-30-5-22-3-21-1-13v-34l3-27 5-26 7-23 8-21 8-16 12-21 11-15 10-13 9-10 21-21 10-8 17-13 15-9 23-12 19-8 25-8 29-6zm98 19 1 127-21-1 1-5 5-1 12-4 1-3-20 1-5-8v-5l12-9 10-6-1-3-25 10h-6l-9-8 2-5 7-12 6-10 1-6-5 3-14 22-2 4-20-5-1-1v-26l-1-31-2 2-3 14-2 6v8l1 3 2 25-16 3-8 2-10-14-12-14h-3l11 19 4 9 2 4-1 4-6 5v2l-6-1-17-8-6-1 4 4 14 10 2 5-4 9h-17v2l15 2v9l-17-1v-125l-9 2-19 7-22 10-21 13-14 10-11 9-12 11-8 7-10 11-10 13-12 17-10 18-8 15-10 26-7 24-5 26-2 22v34l1 1h256l18-1h25l18 1h209l2-2v-36l-3-23-7-32-7-21-11-25-11-21-10-15-10-13-12-14-21-21-14-11-12-9-20-12-25-12-27-10zm-335 293 1 10 6 26 9 27 9 20 10 19 7 11 11 15 11 14 8 8 6 7 8 7 10 9 18 13 15 9 23 12 16 7 21 7 21 5 25 4 9 1h36l26-3 23-5 30-10 22-10 21-12 13-9 13-10 13-11 13-13 7-8 9-10 14-20 16-28 7-16-3-1h-25l-18-2-4-2 6-5 4-2h11l15 4 15 2 3-5 5-15 6-22 2-11v-7z" fill="#FCFDFC"/>
<path transform="translate(424,35)" d="m0 0h47l26 3 29 6 31 9 21 8 20 9 20 10 18 11 11 8 14 9 11 9 14 12 15 14 7 8 13 15 9 11 9 12 8 12 9 15 12 23 7 16 11 29 7 23 7 32 3 25 1 11v46l-2 22-4 27-5 22-8 26-11 28-11 24-9 16-13 19-8 11-12 17-10 11-7 8-9 9-11 9-1 1 16-4 13-5 20-11 16-11 12-12 7-8 10-13 11-14 7 6 8 8 8 7 13 12 10 9 13 12 1 5-7 10-6 10-7 9-12 13-12 10-18 11-21 9-9 2 2 5 5 7-10 9-14 11-20 15-18 12-18 11-27 14-29 13-28 11-26 8-24 6-27 5-23 3-25 2-32 1-32-2-38-5-29-6-35-10-24-8-29-12-25-12-18-10-21-13-20-14-10-8-2-4 3-7-25-8-16-6-16-8-11-6-14-12-12-12-11-14-2-4v-7l33-33 9-11 13-13 1-2 4 1 30 30 16 12 10 6 20 8 11 3-6-7-8-7-7-8-7-7-7-8-13-17-11-17-14-22-10-18-10-22-11-30-8-30-5-30-3-28v-44l3-30 5-28 7-24 13-37 12-26 13-23 7-11 8-12 11-14 9-10 9-11 15-16 14-13 11-9 13-10 21-14 23-13 16-8 17-8 36-12 29-7 26-4zm6 4-29 2-26 4-25 6-29 9-20 8-25 12-22 13-18 12-13 10-14 12-15 14-8 8-7 8-13 15-10 13-9 13-12 19-14 26-9 21-10 28-7 27-5 29-2 19-1 18v30l3 32 6 35 7 26 5 15 11 27 12 24 14 23 10 14 9 12 11 13 7 8 11 12h2l2 4 8 8 8 6 4 1 3 5 13 10 10 7 14 9 19 11 24 12 28 11 31 9 31 6 25 3 37 1 29-2 24-3 24-5 21-6 31-11 16-7 22-12 16-10 16-11 17-13 12-11 15-14 8-8 7-8 12-14 14-19 10-15 12-21 11-23 13-34 9-32 5-30 3-27v-47l-3-29-5-28-6-24-7-21-10-24-10-21-14-24-11-16-10-13-8-10-12-13-9-10-8-8h-2v-2l-8-7-13-11-18-13-20-13-26-14-26-12-33-11-24-6-30-5-26-2zm280 628-11 9-13 10-19 13-10 7-25 15-29 15-25 11-36 12-20 5-25 4-17 2-16 1h-23l-28-2-31-5-36-9-24-8-20-8-15-7-29-15-23-14-24-16-5-3-7 10-12 20-16 25-9 15 2 4 16 12 23 15 19 11 27 14 20 9 25 10 25 8 32 8 26 5 22 3 25 2h51l31-3 32-5 38-9 36-12 24-10 34-16 18-10 11-7 18-12 16-12 11-9 15-12-2-1-2-6-14-20-12-17-13-19-5-8z" fill="#716759"/>
<path transform="translate(358,286)" d="m0 0h31l20 3 15 5 15 8v2l7-4 14-7 16-4 8-1h37l29 3 38 7 14 3 3 4 16 65 10 38-15-1-35-5-13-3-21-4-28-3h-37l-16 3-16 8-3 3-4-2-9-6-11-4-12-2-14-1h-29l-22 2-60 12-28 5h-4l1-7 18-57 13-40 3-5 24-7 28-6z" fill="#FBFBF9"/>
<path transform="translate(516,142)" d="m0 0 11 3 27 11 20 10 19 12 18 14 13 12 17 17 9 11 10 13 13 21 1 4-157-1z" fill="#43906F"/>
<path transform="translate(366,143)" d="m0 0h3v126l-154 1-3 1 2-6 9-15 10-14 13-16 12-13 10-9 13-11 14-10 19-12 16-8 16-7z" fill="#43906F"/>
<path transform="translate(111,618)" d="m0 0 4 1 6 6v2h2l6 7 8 7 10 9 15 10 15 8 21 8 9 1-21 33-11 18-8 13-1 1-10-1-19-5-21-8-14-8-12-9-15-14-10-12-6-8 1-5 22-22 7-8 8-8 7-8z" fill="#FDFEFD"/>
<path transform="translate(426,117)" d="m0 0h36l26 3 24 5 20 6 21 8 19 9 22 13 20 14 13 11 12 11 10 10 9 11 12 15 11 17 9 16 8 15 8 21 7 21 5 21 4 28 1 13v27l-3 29-5 26-9 30-12 28-13 23-11 17-11 14-12 14-17 17-11 9-13 10-17 11-16 9-16 8-19 8-19 6-23 6-20 3-10 1h-48l-23-3-25-6-22-7-17-7-23-11-18-11-18-13-11-9-16-15-11-12-11-13-13-18-15-26-10-21-9-25-6-23-4-23-2-18v-45l3-25 5-23 9-27 11-26 14-25 10-15 10-13 9-11 24-24 11-9 16-12 20-12 21-11 25-10 19-6 21-5 21-3zm-8 6-23 3-27 6-29 10-29 14-20 12-18 14-13 11-8 7-7 8-9 9-10 13-12 17-9 15-7 12-9 21-7 20-6 23-4 24-2 20v34l2 21 4 23 6 22 8 22 11 24 9 16 10 15 7 9 11 14 16 17 12 11 11 9 15 11 23 14 16 8 19 8 26 8 20 4 24 3h45l27-3 27-6 27-9 29-14 14-8 17-12 16-13 13-12 16-16 8-10 13-18 12-20 11-21 9-24 8-30 4-23 2-17v-42l-3-23-5-25-7-24-10-24-13-25-14-21-13-16-14-15-15-15-13-10-18-13-20-12-16-8-16-7-21-7-28-6-22-3z" fill="#716659"/>
<path transform="translate(788,600)" d="m0 0 4 2 13 13 8 7 20 18 8 7 3 2-2 4-8 13-9 12-11 12-9 8-11 8-21 11-18 7-3-1-10-16-10-14-12-17-6-9v-2l19-10 15-11 12-11 7-7 7-8 9-11z" fill="#FDFEFD"/>
<path transform="translate(360,281)" d="m0 0h21l22 2 19 5 14 7 5 3 9-6 16-6 17-3h40l31 4 51 10 3 1 16 64 11 42 1 9h-9l-25-3-22-1-50 4-29 3-15 1h-58l-26-2-43-6-34-4h-10l-37 6-21 4-3 1h-7l1-6 6-20 12-37 10-31 6-17 2-6 4-3 32-9 20-4zm-2 5-22 3-27 6-20 6-4 8-22 68-9 28v5l9-1 43-8 40-8 22-2h29l21 2 14 4 10 6 3 3 4-2 10-6 10-4 13-2h37l28 3 27 5 13 3 37 5h7l-16-62-10-41-3-4-29-6-31-5-21-2h-37l-17 3-12 4-9 5-7 4v-2l-17-9-18-5-15-2z" fill="#636459"/>
<path transform="translate(788,593)" d="m0 0 7 6 8 8 8 7 13 12 10 9 13 12 1 5-7 10-6 10-7 9-12 13-12 10-18 11-21 9-9 2 2 5 5 7-10 9-14 11-20 15-18 12-18 11-27 14-12 5 2-4 16-8 26-14 11-7 18-12 16-12 11-9 14-11-10-16-8-11-12-17-13-19-4-7-5 3-12 10-11 8-17 12-17 11-19 11-27 14-25 11-36 12-20 5-25 4-17 2-16 1h-23l-28-2-31-5-36-9-24-8-20-8-15-7-29-15-23-14-27-18-1-5 10 6 10 8 6 4 11 6 3 1h4l5 5h-3l13 7 15 8 21 10 25 10 22 7 28 7 31 5 21 2h45l27-3 27-5 29-8 22-8 15-6 16-8 25-13 21-13 19-13 14-11 10-7-15 3h-3l2-4 16-4 13-5 20-11 16-11 12-12 7-8 10-13zm0 7-7 9-9 11-14 15-12 11-15 10-17 9 2 5 11 16 10 14 16 24 9-3 15-6 19-10 17-14 9-9 12-16 9-14 1-3-8-7-14-12-15-14-8-7-9-9z" fill="#706659"/>
<path transform="translate(432,229)" d="m0 0h19l10 3 9 6 7 6 8 13 3 11-1 1h-92l3-11 4-9 6-8 8-6 12-5z" fill="#FDFEFD"/>
<path transform="translate(197,559)" d="m0 0h2l8 12-1 3-10 8-7 6-2 3 5-2 18-11 4 2 10 13 13 13 3 5-6 5-5-1-1-3-6 1-1 5 3 4-1 4-6 5-5-5-5 1-3 4 2 4 3 3-4 8-4-2-16-16 1-3 8-7 12-12 8-7h2l2-4h-3l-28 14-9 6-4-1-8-10-4-6 2-4 7-8 8-8 7-8 8-8h2z" fill="#47906F"/>
<path transform="translate(443,160)" d="m0 0h1l1 31v26l6 2 15 4 2-4 15-23 4-2-1 6-7 12-8 13 2 4 7 6 9-1 19-8 4-1-1 4-15 9-6 5 1 7 4 6 20-1-1 3-14 5h-3v4l-9 1-6-15-8-11-11-8-7-3-5-1h-19l-12 4-8 5-4 2-2 4-5 7-3 8-2 8-1 1h-9v-9l-15-2v-2h17l4-9-2-5-15-11-3-3 8 2 17 8h4l2-4 5-4-1-5-10-20-6-11 4 2 12 14 7 10 2 3 16-4 8-1-2-25-1-3v-8l4-14z" fill="#C7AB78"/>
<path transform="translate(698,671)" d="m0 0 2 1-12 9-17 13-23 15-17 10-23 12-19 9-26 10-31 9-24 5-23 3-11 1h-45l-28-3-10-2v-1l11 1v-2l25 2h37l30-3 32-6 31-9 26-10 18-8 19-10 21-13 18-13 9-7 12-9z" fill="#FDFEFD"/>
<path transform="translate(718,507)" d="m0 0 9 1 21 9 9 6 2 4v10l-4 8-5 5-6 3-7-1-16-7-13-7-2-5v-9l5-12z" fill="#48916F"/>
<path transform="translate(510,684)" d="m0 0 6 1 6 5 5 16 3 15v9l-4 5-9 4-9 1-8-3-4-9-6-23v-10l5-6 11-4z" fill="#45916F"/>
<path transform="translate(170,508)" d="m0 0 4 2 3 7-1 4-11 9-3 4 16-6 4 1 4 8-1 3-25 11-19 9-4-1-3-8v-5l13-11 1-2-14 6-4 1-3-5-2-5v-3l15-6 11-5z" fill="#47916F"/>
<path transform="translate(160,471)" d="m0 0 2 2 3 14-25 6-17 5-1 2 17-3 24-6 4 1 3 12-4 3-33 9h-10l-7-9-2-5v-12l3-6 12-5z" fill="#47916F"/>
<path transform="translate(243,614)" d="m0 0 4 2 10 9 5 5 3 4-2 10-5 6-5 2-4-1 1 5-4 8-7 8-2 3-5-2-6-7 10-13 3-5 1-2-5 1-1 2h-2l-2 4-8 10-8-6-3-3 2-4 12-16 10-11 7-8z" fill="#47906F"/>
<path transform="translate(161,751)" d="m0 0 3 1-1 4 10 8 30 20 19 11 27 14 20 9 25 10 25 8 32 8 26 5 22 3 25 2h51l31-3 32-5 38-9 36-12 24-10 9-3-2 4-33 14-30 10-31 8-27 5-23 3-25 2-32 1-32-2-38-5-29-6-35-10-24-8-29-12-25-12-18-10-21-13-20-14-10-8-2-4z" fill="#73685A"/>
<path transform="translate(675,577)" d="m0 0 5 2 29 16 11 6 1 2-8 10-5-1-4-1-2 1v5l4 2-1 5-6 8-4-2-15-15-7-8-8-8-3-4 2-4 9-11z" fill="#47906F"/>
<path transform="translate(699,543)" d="m0 0h10l6 3 1 4-4 7-2 3-6-1-6-2 1 4 24 15 6 2-2-6-9-3-5-2 1-4 6-11 5 1 18 12-1 5-5 7-4 9-7 6h-7l-14-8-13-9-5-6v-9l6-12z" fill="#47916F"/>
<path transform="translate(728,472)" d="m0 0h10l2 2-1 10-2 2-8 1 1 3 5 1 5-3 9-9 8-3 9 2 6 5 2 4-1 12-3 8-5 4-6 2-7-1-1-1 1-11 1-2h9l1-5h-7l-10 8-6 5-6 1-10-3-4-5v-13l6-13z" fill="#469170"/>
<path transform="translate(271,641)" d="m0 0h8l10 6 7 8-1 7-4 6-4-1-6-5 1-7 1-3-5 2-1 1 1 9 6 13-2 9-6 8-4 3-8-1-8-6-5-5-3-5 1-6 5-8 4 2 6 5-2 5-1 6 6-2 1-7-6-15v-8l6-9z" fill="#48906F"/>
<path transform="translate(497,396)" d="m0 0h17l25 2 27 4 2 1v2l-43 4-42 3h-34l2-4 8-6 13-4 7-1z" fill="#FDFEFD"/>
<path transform="translate(208,678)" d="m0 0 5 2 15 9 2 1h5l8 6 14 9 19 11 18 9-1 3 6 2 19 8 33 11 24 6 28 5-1 3-17-1-16-3-24-6-24-8-30-13-16-8-9-5-15-8 4-1-7-5-1 2-5-2-7-4-9-6-13-10-5-3z" fill="#C5AB7A"/>
<path transform="translate(377,395)" d="m0 0h21l23 2 13 5 8 6 2 3-2 1h-13l-28-2-63-8 2-3 13-2z" fill="#FDFEFD"/>
<path transform="translate(352,679)" d="m0 0 9 1 5 2-1 17 3-4 4-10 3-1 12 3-2 5-7 11-8 13-5 13-2 7-13-4 3-14v-19z" fill="#47906F"/>
<path transform="translate(547,674)" d="m0 0h5l1 9-8 3 1 5 2 3h4l1-2 3 1 2 5-1 5h-6l4 16 1 8-8 3-5 1-3-7-12-36-2-4 1-4z" fill="#46906F"/>
<path transform="translate(320,666)" d="m0 0 16 6 13 5 1 2-3 9-7-1-3 4-6 17-6 15-2 1-12-5 3-11 7-19 3-11-7-1 1-5z" fill="#48906F"/>
<path transform="translate(647,607)" d="m0 0 4 1 17 17 7 8 5 3 2-4 5-1 4 5-1 4-12 11-3 3h-2l-7-8-7-7-7-8-13-13 2-4z" fill="#47906F"/>
<path transform="translate(303,658)" d="m0 0 6 1 9 5-2 5-21 42-5-2-8-4 1-6 10-19z" fill="#46906F"/>
<path transform="translate(187,544)" d="m0 0h3l6 10-1 4-8 4-11 7-20 12-4 1-7-10 1-4 16-9 10-7z" fill="#4A916F"/>
<path transform="translate(161,751)" d="m0 0 3 1-1 4 10 8 30 20 19 11 27 14 20 9 25 10 25 8-1 3-22-7-25-9-27-12-27-14-23-14-23-16-10-8-2-4z" fill="#756A5B"/>
<path transform="translate(464,563)" d="m0 0 10 1 27 8 2 1v2l-13 4h-12l-18-3-10-1v-4z" fill="#FDFEFD"/>
<path transform="translate(547,601)" d="m0 0h9l25 6 9 2-1 3-14 4h-10l-29-4v-3z" fill="#FDFEFD"/>
<path transform="translate(401,563)" d="m0 0h7l9 3 21 6 2 2-8 3-5 2h-11l-25-4-3-1 1-4z" fill="#FDFEFD"/>
<path transform="translate(584,484)" d="m0 0 11 2 23 6 2 1v2l-15 5-17-1-20-4 1-4 12-6z" fill="#FDFEFD"/>
<path transform="translate(507,484)" d="m0 0 7 1 22 5 10 3-3 3-12 4h-8l-25-4-5-2 4-5z" fill="#FDFEFD"/>
<path transform="translate(396,631)" d="m0 0h9l29 6 4 2-1 2-9 3-16 1-24-3-4-1 1-5z" fill="#FDFEFD"/>
<path transform="translate(435,600)" d="m0 0 12 1 17 4 10 3v4l-1 1-14 2h-11l-19-3-5-2 6-7z" fill="#FDFEFD"/>
<path transform="translate(493,599)" d="m0 0h9l17 5 11 4 1 3-6 2h-25l-20-1 1-4 9-8z" fill="#FDFEFD"/>
<path transform="translate(527,563)" d="m0 0 10 1 19 6 8 1-1 2h-2l-1 3-9 3-18-1-21-3 2-4 11-7z" fill="#FDFEFD"/>
<path transform="translate(427,444)" d="m0 0h15l26 7 3 2-2 2-12 3h-11l-6-1-19-1-3-3z" fill="#FDFEFD"/>
<path transform="translate(288,443)" d="m0 0 9 1 13 4 14 2-1 4-3 2-5 1h-18l-14-1-10-1-3-3 7-6 5-2z" fill="#FDFEFD"/>
<path transform="translate(623,523)" d="m0 0 14 1 24 5 3 3-5 5h-22l-21-3-3-1 2-4z" fill="#FDFEFD"/>
<path transform="translate(649,743)" d="m0 0 2 1-4 4-4 1 3 7 11 18 1 4h-3l-8-11-7-12-6 1-6 3 2 5 8 16-1 8-8 7-8 1-6-5-8-14-3-6v-3l4 1 10 18 4 4 3 1 6-4 2-2v-6l-7-14-3-5v-3l5-2 15-10z" fill="#6B6258"/>
<path transform="translate(561,523)" d="m0 0 12 1 21 5 6 3-2 3-15 3-12-1-18-3-4-1 1-4 8-5z" fill="#FDFEFD"/>
<path transform="translate(339,563)" d="m0 0 8 1 22 6 7 2v2l-12 5h-10l-12-2-15-2v-4l9-7z" fill="#FDFEFD"/>
<path transform="translate(587,564)" d="m0 0h9l22 6 9 2v2l-7 3-3 1h-14l-21-2-7-1 1-5 8-5z" fill="#FDFEFD"/>
<path transform="translate(366,483)" d="m0 0h8l28 6 4 1v3l-11 4h-13l-29-3 2-4 8-6z" fill="#FDFEFD"/>
<path transform="translate(468,631)" d="m0 0h11l31 6 2 1v2l-10 3-4 1h-18l-19-3-3-1v-3h2l1-3z" fill="#FDFEFD"/>
<path transform="translate(653,444)" d="m0 0h15l8 3 17 5v3l-7 2-14 1-27-2-2-1 2-5 6-5z" fill="#FDFEFD"/>
<path transform="translate(579,444)" d="m0 0h15l21 7 5 2-1 3-8 1h-25l-18-3-1-4z" fill="#FDFEFD"/>
<path transform="translate(325,600)" d="m0 0h13l19 6 5 2v3l-10 3h-11l-27-4-2-1 1-4z" fill="#FDFEFD"/>
<path transform="translate(379,599)" d="m0 0 12 1 22 6 5 2-3 4-7 2-17-1-19-2-4-1 1-4z" fill="#FDFEFD"/>
<path transform="translate(211,443)" d="m0 0 13 2 24 6-2 4-5 2-6 1h-11l-8-2-15-1-3-1 1-4 8-6z" fill="#FDFEFD"/>
<path transform="translate(273,564)" d="m0 0h10l29 8 2 2-10 4-3 1h-8l-12-2-16-2-2-3 5-5z" fill="#FDFEFD"/>
<path transform="translate(441,483)" d="m0 0h8l23 6 9 2-3 3-8 3h-18l-12-2h-12l1-4 7-6z" fill="#FDFEFD"/>
<path transform="translate(494,524)" d="m0 0h13l22 5 7 3-3 3-14 3-11-1-18-3-6-2 5-5z" fill="#FDFEFD"/>
<path transform="translate(219,484)" d="m0 0h14l15 4 7 1h6v4l-16 4h-8l-13-2-18-1 2-4 5-4z" fill="#FDFEFD"/>
<path transform="translate(354,444)" d="m0 0h16l19 6 8 4-4 2-5 1h-23l-17-2-2-4z" fill="#FDFEFD"/>
<path transform="translate(298,771)" d="m0 0 7 1 5 4 2 5-1 8-6 8-4 2-10-2-3-3 1-5 8-17z" fill="#FDFEFD"/>
<path transform="translate(432,523)" d="m0 0 13 1 22 6 5 2-3 3-10 2h-14l-24-4 1-4z" fill="#FDFEFD"/>
<path transform="translate(504,444)" d="m0 0h14l15 4 11 3 1 4-11 2h-11l-25-2-4-1 1-4z" fill="#FDFEFD"/>
<path transform="translate(368,523)" d="m0 0 12 1 20 5 8 3v2l-12 3h-15l-18-3-6-2 1-3z" fill="#FDFEFD"/>
<path transform="translate(473,808)" d="m0 0h8l5 3 4 8v8l-4 6-4 3-7 1-3-3-1-9v-16z" fill="#FCFDFC"/>
<path transform="translate(305,523)" d="m0 0 17 2 20 5 2 2-4 3-5 2h-15l-21-3-5-2 2-4 6-4z" fill="#FDFEFD"/>
<path transform="translate(242,523)" d="m0 0h14l19 5 5 2v3l-6 2h-27l-17-2v-3l9-6z" fill="#FDFEFD"/>
<path transform="translate(128,408)" d="m0 0 7 2 4 5 1 9-4 6-3 2h-10l-5-5-1-2v-10l5-5z" fill="#49906F"/>
<path transform="translate(371,799)" d="m0 0 9 1 5 5 1 2v8l-4 8-7 3-9-1-1-1v-7l4-16z" fill="#FDFEFD"/>
<path transform="translate(591,775)" d="m0 0h7l5 5v6l-4 6v2l14 7v2l-8-1-9-6-3-1 5 12-1 4-3-1-11-25v-6l2-2z" fill="#6D6358"/>
<path transform="translate(291,484)" d="m0 0h13l26 6 2 1-1 3-7 2h-23l-19-2v-4z" fill="#FDFEFD"/>
<path transform="translate(208,678)" d="m0 0 5 2 15 9 2 1h5l8 6 14 9 19 11 18 9-1 2-6-2-16-8-19-9-4-3-1 2-5-2-7-4-9-6-13-10-5-3z" fill="#7B6F5D"/>
<path transform="translate(755,409)" d="m0 0h7l6 5 1 2v9l-3 5-3 2h-9l-6-5-1-2v-9l4-5z" fill="#478E6E"/>
<path transform="translate(418,803)" d="m0 0 3 1 3 11 3 17 1 8-4-1-1-8-9-1-5-2-6 9h-3l2-6 8-17 6-10z" fill="#6D6559"/>
<path transform="translate(259,744)" d="m0 0 4 1 1 2 1 31 9-16 3-6 4 1-2 6-10 17-4 6-5-2-1-31-12 20-4 1 1-5 13-22z" fill="#65675A"/>
<path transform="translate(541,792)" d="m0 0h2l8 28v6l-1 1h-5l-9-10-12-12 4 17 3 11h-4l-3-7-5-22 1-5 5 1 2 1v2l4 2 14 14v2l2-1-5-15-2-12z" fill="#6D6559"/>
<path transform="translate(436,805)" d="m0 0 5 1 8 13 7 13 1-19 1-7h3l1 3-2 31-2 1-5-3-11-22-2-3-1 25-4 1-1-2z" fill="#696157"/>
<path transform="translate(471,805)" d="m0 0h12l5 3 5 6 1 3v11l-4 6-5 4-6 2h-9l-2-5-1-10v-18zm2 3-2 1v16l1 9 3 3 9-2 5-6 1-2v-8l-4-8-5-3z" fill="#6B6358"/>
<path transform="translate(369,794)" d="m0 0 13 3 7 6 1 3v9l-4 9-5 4-3 1h-9l-9-3 2-11 5-19zm2 5-2 2-4 16v7l5 2 9-1 5-5 2-5v-8l-3-5-6-3z" fill="#696258"/>
<path transform="translate(295,766)" d="m0 0 8 1 9 6 4 6-1 9-5 10-5 3-8 1-11-4-3-3 7-17 4-8zm3 5-10 20 1 5 9 3 6-1 6-7 2-5-1-8-5-5-3-2z" fill="#6C6459"/>
<path transform="translate(671,725)" d="m0 0 4 1 11 17 4 5 2 3v4h-3l-8-11h-4l-8 7-2 1 2 4 5 8v3l-4-1-7-10-8-12v-2h-2l1-4 4 2 6 9 5-3 7-6h2l-7-12z" fill="#6D6559"/>
<path transform="translate(326,779)" d="m0 0 9 3 5 3 1 3-5-1-7-3-4 8-1 3 10 2 1 4-9-2-4-2-1 5-1 6 9 5 1 3-6-1-11-5 5-14 7-16z" fill="#6E6458"/>
<path transform="translate(347,788)" d="m0 0 8 1 8 5-4 1-10-4-3 12 9 1 2 4h-6l-6-3-3 11 5 3 6 2v3l-6-1-10-4-1-2 7-19 3-9z" fill="#6A6358"/>
<path transform="translate(715,520)" d="m0 0 5 1 27 12 3 4v2h-6l-16-7-12-7-2-4z" fill="#FBFDFC"/>
<path transform="translate(504,694)" d="m0 0 4 1 2 2 6 27v6h-4l-3-8-5-21z" fill="#F9FCFC"/>
<path transform="translate(208,678)" d="m0 0 5 2 15 9 7 3 5 5-2 3 9 3-2 4-10-6-9-6-13-10-5-3z" fill="#C8AF81"/>
<path transform="translate(649,743)" d="m0 0 2 1-4 4-4 1 3 7 11 18 1 4h-3l-8-11-7-12-6 1-6 3-2-1 9-7 11-7z" fill="#6F6559"/>
<path transform="translate(575,782)" d="m0 0h2l-1 4-7 1 5 13 6 15v3l-4-1-8-19-2-7-10 1v-3l8-3z" fill="#696157"/>
<path transform="translate(249,738)" d="m0 0h3l-1 5-10 15-7 10-3-1 2-5 10-16z" fill="#675F56"/>
<path transform="translate(592,778)" d="m0 0 6 1 2 2-1 5-6 7-5-4-1-9z" fill="#FDFEFD"/>
<path transform="translate(654,738)" d="m0 0 4 2 6 9 3 1 1 5 6 9v3l-4-1-7-10-8-12v-2h-2z" fill="#696257"/>
<path transform="translate(507,801)" d="m0 0h4l6 30v4l-4-1-4-20z" fill="#6C6358"/>
<path transform="translate(418,809)" d="m0 0 2 2 1 8v9l-9-2-2-1 2-6 5-9z" fill="#FDFEFD"/>
<path transform="translate(541,792)" d="m0 0h2l4 14 4 15-2 3-2-2-3-10-4-18z" fill="#6E695B"/>
<path transform="translate(765,413)" d="m0 0 3 1 1 2v9l-3 5-3 2h-9l-5-5 3 1h11l1-1v-13z" fill="#696056"/>
<path transform="translate(258,707)" d="m0 0 6 2 14 8 16 8-1 2-6-2-30-15z" fill="#73685A"/>
<path transform="translate(682,595)" d="m0 0 6 2 8 7 1 4-6-1-9-9z" fill="#F9FCFC"/>
<path transform="translate(248,631)" d="m0 0 4 1-1 5-3 3-5-1 1-4z" fill="#FAFCFC"/>
<path transform="translate(274,716)" d="m0 0 6 2 14 7-1 2-6-2-13-7z" fill="#7A6E5D"/>
<path transform="translate(132,428)" d="m0 0 4 2-3 2h-10l-3-3z" fill="#685F56"/>
<path transform="translate(128,408)" d="m0 0 4 2-8 2-3 3-1 2h-2v6h-1v-8l5-5z" fill="#71675A"/>
<path transform="translate(306,833)" d="m0 0 10 2 3 1-1 3-12-4z" fill="#7C6F5D"/>
<path transform="translate(347,804)" d="m0 0h8l2 4h-6z" fill="#72675A"/>
<path transform="translate(434,155)" d="m0 0 2 1v9l-3 1v-10z" fill="#C8AC79"/>
<path transform="translate(401,171)" d="m0 0h3v2l3 1-2 4-3-1z" fill="#A2906C"/>
</svg>
